<?xml version="1.0" standalone="no"?>
<!DOCTYPE svg PUBLIC "-//W3C//DTD SVG 20010904//EN"
 "http://www.w3.org/TR/2001/REC-SVG-20010904/DTD/svg10.dtd">
<svg version="1.0" xmlns="http://www.w3.org/2000/svg"
 width="523.000000pt" height="523.000000pt" viewBox="0 0 523.000000 523.000000"
 preserveAspectRatio="xMidYMid meet">
<metadata>
Created by potrace 1.14, written by Peter Selinger 2001-2017
</metadata>
<g transform="translate(0.000000,523.000000) scale(0.100000,-0.100000)"
fill="#000000" stroke="none">
<path d="M2558 4909 c-94 -14 -190 -83 -245 -176 -24 -42 -25 -42 -49 -26 -30
19 -97 13 -125 -13 -19 -17 -21 -17 -47 0 -15 9 -40 23 -57 30 -60 27 -73 28
-94 7 -12 -12 -31 -21 -43 -21 -48 0 -97 -20 -104 -43 -3 -12 -16 -32 -27 -45
-17 -18 -19 -27 -10 -40 9 -15 5 -24 -23 -50 -35 -34 -40 -50 -25 -80 5 -9 12
-25 15 -35 3 -9 14 -20 23 -24 10 -4 24 -15 31 -25 7 -10 21 -18 31 -18 10 0
32 -5 50 -11 l31 -11 -22 -17 c-13 -10 -57 -37 -98 -62 -41 -24 -78 -47 -81
-52 -3 -5 -6 -26 -5 -49 1 -37 4 -41 41 -54 58 -20 269 -71 345 -84 94 -15
110 -19 110 -28 0 -15 -103 -114 -154 -148 l-50 -33 -32 60 c-18 34 -41 67
-51 75 -116 91 -241 64 -351 -75 l-19 -25 -83 38 c-135 62 -207 61 -279 -1
-141 -121 -128 -374 25 -454 l44 -24 0 -172 c0 -155 -2 -173 -18 -182 -32 -17
-94 -120 -132 -220 -53 -140 -89 -213 -112 -232 -24 -19 -17 -36 18 -49 15 -6
22 -15 18 -25 -4 -10 0 -15 13 -15 32 0 32 -8 -1 -73 -22 -44 -38 -63 -55 -67
-20 -4 -52 -50 -35 -50 3 0 -3 -12 -14 -27 -11 -16 -32 -53 -46 -83 -18 -35
-55 -81 -103 -127 -75 -71 -89 -103 -45 -103 10 0 23 -5 30 -12 7 -7 12 -9 12
-6 0 4 12 1 26 -7 15 -7 33 -11 42 -7 11 4 14 1 10 -9 -3 -8 -13 -40 -22 -71
-9 -31 -27 -70 -41 -86 -16 -20 -25 -42 -25 -65 0 -20 -5 -39 -11 -43 -17 -10
-49 -92 -64 -165 -19 -91 -54 -179 -80 -203 -22 -21 -23 -46 -2 -46 6 0 19 -8
29 -17 22 -19 88 -44 99 -37 5 3 17 -4 27 -14 14 -14 36 -19 94 -20 45 -2 79
1 83 8 3 5 17 10 30 10 34 0 38 13 21 63 -31 93 -43 205 -33 307 3 27 -1 59
-10 80 -8 19 -13 49 -12 65 3 42 -9 73 -32 80 -23 8 -24 17 -3 72 17 44 36 59
52 40 6 -7 22 -66 36 -132 16 -74 35 -133 50 -156 29 -43 34 -81 17 -131 -6
-20 -14 -103 -16 -185 -2 -95 -9 -165 -19 -197 l-15 -48 37 7 c20 4 55 9 77
10 22 2 42 4 45 5 3 1 13 1 23 0 10 -1 25 4 34 11 8 7 22 14 31 16 9 1 22 10
30 20 7 10 20 17 28 15 20 -4 44 16 44 38 0 9 -9 25 -21 36 -33 29 -39 48 -60
167 -11 61 -26 118 -33 126 -28 31 -22 83 16 162 21 41 43 92 50 114 9 27 20
41 33 43 17 2 24 -10 46 -79 25 -77 25 -84 10 -110 -12 -21 -13 -34 -5 -56 7
-20 6 -39 -3 -65 -7 -21 -11 -53 -8 -70 15 -113 18 -138 20 -179 1 -26 -4 -63
-11 -84 -15 -46 -9 -65 22 -65 13 0 35 -5 49 -12 18 -8 29 -8 36 -1 8 8 18 7
35 -2 31 -16 100 -4 118 20 8 11 26 17 50 17 51 0 55 20 14 66 -26 29 -45 71
-82 182 -39 118 -53 150 -78 171 -19 16 -28 31 -24 38 13 21 -2 57 -29 69 -14
6 -25 19 -25 27 0 9 -9 43 -20 76 -25 73 -15 92 43 82 57 -9 57 -9 -3 197 -11
36 -22 84 -26 108 -4 24 -17 59 -30 78 -13 19 -24 42 -24 50 0 9 -12 20 -27
26 -23 9 -32 24 -53 89 -28 85 -27 89 29 95 34 4 36 10 22 57 -6 23 -17 80
-22 127 -6 47 -17 125 -26 173 -14 81 -14 90 1 106 19 21 9 63 -18 78 -12 7
-15 36 -16 163 -1 238 -4 218 28 225 36 7 101 66 137 123 15 23 29 42 32 42 2
0 26 -11 53 -25 210 -107 390 -48 425 138 6 30 15 42 44 56 51 27 142 99 182
146 19 22 37 42 40 45 3 3 11 15 18 28 12 22 14 22 124 15 205 -14 436 -9 552
13 27 5 34 1 63 -40 52 -73 148 -161 211 -195 52 -27 59 -35 65 -68 3 -21 15
-56 27 -77 68 -126 223 -150 399 -61 27 14 51 25 54 25 2 0 14 -17 27 -37 34
-58 76 -99 122 -119 23 -10 44 -22 47 -25 3 -4 5 -86 4 -181 -1 -174 -2 -175
-28 -201 -31 -31 -33 -52 -7 -69 17 -11 18 -15 6 -57 -14 -47 -23 -112 -30
-214 -4 -57 -20 -124 -35 -140 -12 -14 1 -47 19 -48 67 -5 70 -10 41 -98 -21
-65 -30 -80 -52 -89 -16 -6 -28 -18 -28 -27 0 -8 -9 -28 -20 -43 -18 -24 -100
-315 -104 -367 -1 -17 5 -20 38 -19 62 2 70 -13 46 -85 -11 -33 -20 -67 -20
-76 0 -8 -4 -15 -10 -15 -21 0 -51 -45 -46 -71 4 -19 -2 -31 -25 -50 -23 -19
-38 -51 -75 -165 -35 -109 -53 -151 -80 -183 -20 -23 -34 -47 -32 -53 3 -7 21
-13 42 -15 21 -1 43 -9 50 -17 17 -23 90 -36 118 -22 16 9 28 9 40 2 12 -7 24
-6 40 3 13 7 28 11 34 10 33 -6 51 20 34 52 -16 29 -18 108 -5 198 12 83 11
142 -4 169 -5 8 -3 28 3 44 9 23 8 35 -6 58 -16 29 -16 33 11 107 37 104 52
104 95 -2 18 -45 41 -93 51 -109 22 -33 21 -90 0 -123 -15 -23 -19 -36 -39
-159 -15 -89 -23 -110 -55 -138 -12 -11 -21 -27 -21 -36 0 -23 26 -44 45 -36
9 3 18 -1 21 -9 8 -20 83 -53 124 -54 33 -1 48 -3 129 -18 31 -5 33 -4 27 13
-23 56 -28 92 -32 232 -2 106 -8 163 -18 182 -16 33 -7 101 17 128 16 19 42
89 50 137 27 166 48 196 86 118 27 -56 27 -67 -4 -81 -24 -11 -30 -30 -26 -87
1 -12 -4 -35 -12 -54 -10 -23 -13 -63 -10 -139 3 -86 0 -123 -17 -187 -30
-112 -30 -119 0 -123 14 -2 30 -8 36 -13 6 -5 44 -9 84 -8 57 1 76 6 88 20 10
12 24 16 38 13 12 -3 25 -1 28 5 4 6 14 11 22 11 15 0 73 37 86 55 4 5 -4 20
-17 33 -26 26 -70 139 -84 217 -11 57 -44 139 -60 149 -6 4 -11 23 -11 43 0
23 -9 45 -25 65 -14 16 -32 55 -41 86 -9 31 -19 63 -21 70 -4 8 2 11 17 9 12
-2 39 5 58 15 20 10 42 18 49 18 8 0 16 7 20 16 4 10 -13 33 -53 71 -33 30
-64 58 -70 61 -6 4 -26 36 -44 72 -18 36 -40 72 -47 81 -8 9 -16 29 -19 45 -6
34 -12 41 -39 46 -28 5 -92 127 -70 133 50 16 50 16 36 25 -11 6 -6 12 18 24
34 18 39 31 16 40 -15 5 -84 142 -100 196 -30 103 -121 260 -150 260 -15 0
-23 131 -17 283 l3 77 34 15 c42 17 79 55 108 110 17 32 21 57 21 125 -1 97
-15 139 -70 200 -74 81 -167 89 -305 24 l-78 -37 -48 53 c-105 117 -239 131
-334 36 -24 -24 -52 -71 -63 -109 -5 -17 -8 -17 -46 6 -73 43 -186 158 -175
177 3 5 24 11 48 15 44 8 238 60 358 96 l70 21 -3 47 c-3 43 -6 47 -49 71
-110 61 -122 70 -109 85 7 8 23 15 37 15 30 0 103 57 103 81 0 10 5 21 10 24
20 12 9 46 -24 77 -29 27 -32 34 -23 50 10 16 8 22 -12 37 -13 10 -21 23 -17
29 9 14 -32 52 -58 53 -48 2 -78 11 -97 30 -21 21 -34 20 -94 -7 -16 -7 -42
-21 -56 -30 -25 -16 -28 -16 -57 4 -35 26 -83 28 -116 7 -23 -15 -24 -14 -51
31 -74 127 -208 193 -347 173z m-415 -365 c21 -20 37 -37 35 -39 -14 -13 -130
-76 -134 -72 -12 12 -13 93 -2 108 12 15 48 38 58 38 3 0 22 -16 43 -35z
m1007 21 c16 -8 31 -23 35 -34 9 -28 2 -83 -11 -88 -6 -2 -39 13 -73 33 -55
33 -60 39 -44 48 10 5 26 20 36 33 22 27 20 27 57 8z m-1319 -668 c35 -23 79
-81 79 -102 0 -18 -42 -24 -135 -21 -90 4 -185 23 -185 37 0 5 18 28 40 49 63
62 143 76 201 37z m1703 9 c36 -15 106 -78 106 -94 0 -27 -292 -53 -317 -29
-4 5 3 27 15 51 40 74 120 104 196 72z m484 -80 c101 -52 121 -232 35 -313
-42 -40 -51 -41 -58 -5 -12 53 -44 110 -79 137 -28 21 -46 26 -90 26 l-55 0
-17 44 c-9 24 -13 48 -10 53 9 16 86 53 146 72 56 18 69 17 128 -14z m-2617
-9 c95 -45 96 -47 75 -101 -17 -45 -20 -47 -54 -44 -21 1 -52 -1 -69 -6 -43
-10 -102 -79 -109 -127 -10 -61 -18 -66 -57 -36 -97 74 -85 250 22 319 56 36
109 35 192 -5z m231 -101 c64 -18 158 -25 229 -16 54 7 60 0 35 -48 -15 -29
-48 -60 -81 -78 -52 -27 -150 -11 -257 42 l-47 24 14 41 c19 53 25 61 39 56 6
-2 36 -12 68 -21z m2062 -8 c27 -60 25 -69 -24 -94 -114 -58 -222 -69 -278
-27 -33 24 -72 80 -72 103 0 14 7 16 43 10 74 -11 186 -1 252 23 58 21 63 20
79 -15z m-2274 -117 c0 -11 -46 -69 -75 -93 -18 -16 -55 -25 -55 -13 0 24 38
89 59 100 30 16 71 20 71 6z m2475 -15 c24 -22 50 -84 40 -94 -2 -3 -18 1 -35
8 -27 11 -90 82 -90 102 0 18 60 7 85 -16z m-2658 -1147 c23 -47 31 -134 15
-164 -7 -15 -11 -37 -8 -48 3 -12 -1 -46 -9 -77 -7 -30 -17 -89 -20 -130 -4
-41 -9 -86 -11 -100 -19 -102 -19 -103 10 -96 27 7 28 6 21 -26 -8 -43 -63
-153 -86 -174 -33 -30 -52 -14 -86 71 -17 44 -35 102 -39 129 -7 48 -6 49 17
43 41 -10 52 5 45 59 -3 27 -8 103 -12 169 -3 66 -7 126 -10 133 -2 7 1 22 6
33 8 13 7 31 -1 58 -11 36 -9 42 23 92 34 53 35 54 84 54 42 -1 51 -4 61 -26z
m2901 -28 c33 -51 34 -55 22 -97 -8 -28 -9 -49 -3 -56 10 -14 9 -79 -2 -193
-19 -196 -17 -208 32 -199 28 5 29 -8 8 -91 -23 -88 -63 -165 -85 -165 -32 0
-99 109 -115 189 -6 30 -5 33 10 27 24 -9 47 12 36 33 -9 18 -18 72 -27 171
-3 36 -10 83 -16 105 -6 22 -12 60 -14 85 -2 25 -6 64 -10 88 -6 42 9 126 26
147 5 5 30 10 56 10 46 0 48 -1 82 -54z"/>
<path d="M2539 3933 c-38 -6 -44 -39 -14 -83 13 -19 27 -53 30 -75 4 -22 9
-49 12 -59 5 -17 1 -18 -26 -13 -66 14 -113 -34 -92 -95 9 -25 8 -28 -12 -28
-42 1 -112 21 -139 40 -37 27 -74 26 -82 -2 -8 -30 -8 -127 0 -167 8 -37 37
-42 75 -13 32 25 55 33 111 39 l46 5 -5 -40 c-7 -55 22 -86 78 -80 l39 4 0
-42 c0 -27 -11 -62 -30 -99 -16 -31 -30 -63 -30 -71 0 -7 15 -16 34 -20 34 -6
35 -7 33 -52 l-2 -47 -420 0 -420 0 -5 -110 c-7 -155 -5 -555 4 -650 21 -242
70 -446 154 -645 144 -342 344 -527 617 -574 76 -14 72 -8 74 -97 l1 -46 39 1
c22 1 43 4 47 9 4 4 7 29 6 55 -1 26 1 52 5 58 5 6 28 14 53 18 304 41 530
271 675 686 37 109 79 272 89 350 3 25 8 56 11 69 18 91 26 853 9 870 -3 3
-193 6 -422 6 l-417 0 0 45 c0 37 3 45 20 48 11 2 26 11 32 20 11 13 9 23 -11
56 -18 31 -46 129 -46 163 0 1 10 -1 23 -6 34 -13 36 -13 67 5 33 20 44 52 30
88 -9 24 -7 26 18 26 46 -1 104 -18 133 -39 38 -28 75 -28 83 2 8 29 8 126 0
166 -8 38 -40 42 -83 10 -28 -20 -87 -38 -128 -39 -19 0 -21 4 -16 39 7 54
-22 84 -80 79 -23 -1 -41 1 -41 5 1 4 4 30 8 58 4 28 18 68 31 90 27 42 31 64
14 75 -13 8 -140 13 -180 7z m433 -368 c-2 -14 -9 -25 -14 -25 -5 0 -7 3 -5 8
2 4 7 15 10 25 9 25 15 21 9 -8z m8 -81 c0 -8 -4 -12 -10 -9 -5 3 -10 13 -10
21 0 8 5 12 10 9 6 -3 10 -13 10 -21z m-373 -300 c-3 -3 -12 -4 -19 -1 -8 3
-5 6 6 6 11 1 17 -2 13 -5z m43 -4 c0 -5 -4 -10 -9 -10 -6 0 -13 5 -16 10 -3
6 1 10 9 10 9 0 16 -4 16 -10z"/>
<path d="M2367 894 c-1 -1 -76 -5 -167 -9 -91 -3 -185 -8 -210 -10 -25 -3 -74
-7 -110 -10 -36 -3 -78 -7 -95 -9 -16 -2 -59 -7 -95 -10 -36 -4 -72 -9 -80
-11 -8 -2 -39 -7 -67 -10 -29 -4 -67 -10 -84 -15 -18 -5 -35 -7 -39 -5 -11 7
-20 -21 -20 -61 0 -30 -3 -34 -19 -29 -19 6 -230 -34 -298 -56 -33 -11 -37
-16 -33 -56 1 -16 -4 -23 -17 -23 -32 0 -233 -65 -233 -75 0 -5 37 -28 81 -50
44 -22 84 -45 89 -50 5 -6 -17 -50 -55 -110 -36 -54 -63 -101 -60 -103 2 -3
19 2 37 11 100 46 253 98 347 118 57 12 79 27 58 41 -24 16 22 30 173 54 14 2
36 6 50 8 14 3 30 5 37 5 7 1 10 8 7 16 -7 16 -39 15 -113 -5 -23 -6 -48 -9
-55 -7 -14 6 -19 54 -6 62 6 3 10 -2 10 -13 0 -10 2 -21 5 -24 3 -3 60 5 127
18 67 13 149 26 182 29 34 3 77 7 96 9 344 38 957 47 1350 21 163 -10 234 -16
265 -20 17 -2 53 -6 80 -10 107 -14 122 -16 175 -25 30 -5 70 -12 88 -15 19
-3 39 -7 45 -8 9 -1 13 46 14 171 1 94 -1 172 -5 172 -4 0 -38 6 -77 14 -38 8
-88 17 -110 20 -147 19 -208 26 -265 31 -36 3 -90 7 -120 10 -145 13 -872 29
-883 19z m-1277 -585 c0 -5 -7 -9 -15 -9 -8 0 -15 7 -15 15 0 9 6 12 15 9 8
-4 15 -10 15 -15z"/>
<path d="M3847 712 c-2 -4 -3 -67 -2 -140 1 -73 -2 -135 -6 -137 -4 -3 -39 2
-78 11 -69 16 -114 13 -95 -6 5 -5 50 -16 99 -24 93 -17 199 -44 178 -45 -7
-1 -13 -9 -13 -19 0 -15 13 -22 58 -32 79 -17 260 -76 327 -105 33 -15 55 -20
55 -13 0 6 -27 53 -60 105 l-60 93 32 20 c18 11 61 35 96 52 34 17 61 33 59
35 -18 17 -225 76 -244 69 -9 -4 -13 6 -13 34 0 45 9 41 -170 80 -118 26 -158
32 -163 22z m323 -402 c0 -5 -4 -10 -10 -10 -5 0 -10 5 -10 10 0 6 5 10 10 10
6 0 10 -4 10 -10z"/>
<path d="M2594 529 c-20 -7 -20 -11 -10 -83 18 -127 48 -123 61 10 7 65 6 72
-12 76 -10 3 -28 2 -39 -3z"/>
</g>
</svg>
